# xmcd CD database file
#
# Track frame offsets:
#	150
#	17145
#	37392
#	54357
#
# Disc length: 993 seconds
#
# Revision: 0
# Processed by: cddbd v1.5PL3 Copyright (c) Steve Scherf et al.
# Submitted via: CDex 1.51
#
DISCID=3003df04
DTITLE=Kids Alive - Top Speed
DYEAR=2001
DGENRE=JPop
TTITLE0=Top Speed
TTITLE1=君がもういない
TTITLE2=Top Speed [TV MIX]
TTITLE3=君がもういない [TV MIX]
EXTD=YEAR: 2001
EXTT0=
EXTT1=
EXTT2=
EXTT3=
PLAYORDER=
